<?xml version="1.0" encoding="UTF-8"?>
<svg id="_レイヤー_2" data-name="レイヤー 2" xmlns="http://www.w3.org/2000/svg" viewBox="0 0 854.68 179.56">
  <defs>
    <style>
      .cls-1 {
        fill: #fff;
      }
    </style>
  </defs>
  <g id="_レイヤー_2-2" data-name=" レイヤー 2">
    <g id="_レイヤー_1-2" data-name=" レイヤー 1-2">
      <g>
        <path class="cls-1" d="m854.66,137.97c-.36,1.63-.65,3.28-1.08,4.89-5.17,19.37-17.49,31.74-37.18,35.66-17.87,3.56-33.19-2.09-45.27-15.77-6-6.79-9.52-14.84-10.74-23.84-1.97-14.55,2.07-27.3,11.66-38.37.45-.52.87-1.06,1.45-1.77,2.42,2.38,4.61,4.55,6.91,6.8-9.08,9.99-12.7,21.5-9.95,34.69,1.89,9.06,6.7,16.44,14.11,22.01,15.12,11.36,35.72,9.41,48.71-2.6,13.7-12.66,17.39-37.12,1.08-54.05,2.17-2.21,4.35-4.43,6.62-6.74.38.35.8.69,1.16,1.08,6.44,6.96,10.41,15.13,12.07,24.43.18,1.03.31,2.08.47,3.12v10.46h-.02Z"/>
        <path class="cls-1" d="m43.94,85.17c-.27,3.26-.52,6.28-.76,9.29-13.54-.56-29.97-9.58-38.22-26.17C-4.85,48.55.57,26.54,15.18,13.02,29.84-.55,50.93-4.48,70.17,5.87c19.12,10.29,26.35,30.25,24.73,45.83-3.06-.24-6.13-.47-9.41-.73-.03-1.21-.09-2.3-.08-3.39.05-8.38-2.47-15.96-7.53-22.61-6.5-8.53-15.11-13.5-25.85-14.87-16.04-2.05-32.38,7.06-39.01,22.21-2.38,5.44-3.62,11.16-3.23,17.09,1.24,18.81,14.86,32.16,30.73,35.13,1.09.2,2.19.41,3.42.64Z"/>
        <path class="cls-1" d="m675.71,85.22c-.27,3.16-.53,6.18-.81,9.45-5.53-.58-10.75-1.97-15.73-4.32-9.51-4.5-16.77-11.41-21.7-20.64-10.06-18.84-6.41-41.07,8.46-55.73,14.84-14.63,36.84-18.58,56.25-7.97,19.03,10.4,26.28,30.68,24.39,45.7-3.06-.26-6.13-.52-9.47-.8,0-1.29-.02-2.45,0-3.61.12-6.97-1.75-13.43-5.41-19.32-5.9-9.48-14.35-15.48-25.39-17.51-20.22-3.72-39.69,9.09-43.98,29.54-4.15,19.79,8.5,39.09,27.47,43.94,1.86.48,3.76.81,5.92,1.27h0Z"/>
        <path class="cls-1" d="m359.9,85.12c-.33,3.21-.64,6.28-.95,9.33-12.73-.53-30.77-9.16-39.04-28.2-7.94-18.26-3.74-40.59,12.59-54.52,15.6-13.31,37.2-15.95,55.86-4.52,17.02,10.42,24.11,29.02,22.28,44.49-3.06-.24-6.12-.47-9.35-.73,0-1.13.01-2.05,0-2.97-.25-15.03-6.84-26.47-20.04-33.7-16.07-8.8-36.01-4.31-47.15,9.56-4.32,5.38-7.22,11.42-7.99,18.23-1.55,13.73,2.6,25.42,13.35,34.48,5.54,4.67,12,7.28,19.12,8.34.3.05.61.09,1.32.21h0Z"/>
        <path class="cls-1" d="m518.37,105.64c2.26-2.28,4.4-4.45,6.54-6.62,9.73,8.21,17.02,25.51,12.78,43.97-4.36,18.98-20.22,33.43-39.51,36.03-22.78,3.07-41.87-9.52-49.94-27.21-8.46-18.53-3.72-40.01,9.56-52.83,2.19,2.16,4.38,4.32,6.68,6.59-.47.57-.84,1.05-1.23,1.5-11.3,12.84-12.85,31.22-3.53,45.56,6.53,10.04,15.97,15.77,27.94,16.98,19.45,1.96,36.7-10.67,40.77-29.73.39-1.81.52-3.69.55-5.55.05-2.61.14-5.25-.22-7.82-1.04-7.54-4.27-14.12-9.4-19.76-.33-.37-.66-.74-1-1.13v.02Z"/>
        <path class="cls-1" d="m55.92,94.49c.4-3.14.14-6.31,1.04-9.35,22.3,1.57,43.47,21.79,42.75,48.34-.69,25.64-22.49,46.94-49.11,45.93-13.52-.51-24.89-5.85-33.88-15.95-8.93-10.05-12.71-21.88-11.82-35.25.22-.1.38-.24.54-.23,2.36.16,4.73.3,7.09.54,2.05.22,2.05.28,1.97,2.29-.22,5.24.56,10.33,2.59,15.15,5.39,12.76,14.87,20.77,28.58,23.22,20.91,3.74,39.02-9.97,43.27-28.07,5.05-21.49-8.23-40.58-27.28-45.47-1.86-.48-3.76-.75-5.75-1.15h.01Z"/>
        <path class="cls-1" d="m202.47,105.52c2.33-2.22,4.57-4.36,6.82-6.5,15.89,15,20.44,44.41,1.08,65.35-18.72,20.25-50.56,20.15-69.27.34-19.15-20.28-15.69-49.82.73-65.61,2.24,2.12,4.48,4.24,6.84,6.47-8.79,9.53-12.4,20.58-10.26,33.24,1.64,9.69,6.58,17.48,14.4,23.45,14.33,10.94,35.97,10.29,49.75-3.65,13.14-13.28,15.69-36.29-.08-53.1h0Z"/>
        <path class="cls-1" d="m636.94,127.96c3.02.24,6.05.48,9.28.73,0,.72.02,1.38,0,2.04-.25,8.42,1.98,16.13,6.85,23.02,5.97,8.44,14.12,13.69,24.29,15.46,20.32,3.54,37.88-9.18,42.93-26.4,1.08-3.69,1.26-7.43,1.35-11.25.17-7.31-1.98-13.91-5.92-19.9-6.01-9.15-14.51-14.72-25.34-16.68-.74-.13-1.48-.25-2.21-.37-.05,0-.1-.06-.31-.19-.14-3.06.25-6.17.8-9.26,15.23.9,32.44,11.49,39.6,29.78,7.05,18.02,2.68,39.93-14.09,53.69-16.11,13.21-39.08,14.44-56.18,3.06-16.94-11.28-22.98-29.98-21.04-43.74h0Z"/>
        <path class="cls-1" d="m320.87,127.9c3.18.28,6.27.55,9.56.84,0,1.3.01,2.4,0,3.5-.14,9.46,3.1,17.71,9.31,24.74,6.59,7.45,14.92,11.69,24.89,12.64,19.35,1.85,36.98-11.36,40.67-30.42,3.6-18.62-7.56-37.78-26.73-43.29-2.15-.62-4.38-.95-6.81-1.47.26-2.99.53-6.1.82-9.47,5.91.55,11.48,2.14,16.73,4.8,9.06,4.58,16.02,11.34,20.79,20.3,9.74,18.3,6.32,40.45-7.97,55.05-14.26,14.57-36.1,18.54-54.51,9.72-18.8-9.01-28.55-28.36-26.75-46.94h0Z"/>
        <path class="cls-1" d="m616.55,104.45c.05.42.12.71.12,1.01v8.32c-1.47.4-54.75.53-57.69.14v-9.48h57.57Z"/>
        <path class="cls-1" d="m243.51,113.89v-9.45h56.9v9.36c-1.33.4-54.47.5-56.9.09Z"/>
      </g>
    </g>
  </g>
</svg>