<?xml version="1.0" encoding="UTF-8"?>
<svg id="_レイヤー_2" data-name="レイヤー 2" xmlns="http://www.w3.org/2000/svg" viewBox="0 0 238.47 54.33">
  <defs>
    <style>
      .cls-1 {
        fill: none;
        stroke: #ff4242;
        stroke-miterlimit: 10;
      }
    </style>
  </defs>
  <g id="_レイヤー_1-2" data-name="レイヤー 1">
    <g>
      <path class="cls-1" d="m23.06,6.58l1.65,5.24-7.49,2.32,4.89,7-4.5,3.2-4.89-6.61-5.03,6.61-4.5-3.2,4.92-7L.63,11.82l1.65-5.24,7.35,2.39V.5h6.08v8.47l7.35-2.39Z"/>
      <path class="cls-1" d="m68.55,30h-25.17v13.32h28.69v9.32h-39.27V.82h38v9.18h-27.42v11h25.17v9Z"/>
      <path class="cls-1" d="m76.67,27.82h20.18v9.49h-20.18v-9.49Z"/>
      <path class="cls-1" d="m125.19,24.86c-.84-1.85-2.5-2.78-4.96-2.78-2.86,0-4.78.93-5.77,2.78-.54,1.05-.81,2.62-.81,4.71v23.06h-10.16V14.39h9.74v5.59c1.24-1.99,2.41-3.41,3.52-4.25,1.95-1.5,4.46-2.25,7.56-2.25,2.93,0,5.3.64,7.1,1.93,1.45,1.2,2.55,2.73,3.3,4.61,1.31-2.25,2.94-3.9,4.89-4.96,2.06-1.05,4.36-1.58,6.89-1.58,1.69,0,3.35.33,4.99.98s3.13,1.8,4.46,3.45c1.08,1.34,1.8,2.98,2.18,4.92.23,1.29.35,3.18.35,5.66l-.07,24.15h-10.27v-24.4c0-1.45-.23-2.65-.7-3.59-.89-1.78-2.53-2.67-4.92-2.67-2.77,0-4.68,1.15-5.73,3.45-.54,1.22-.81,2.68-.81,4.39v22.82h-10.09v-22.82c0-2.27-.23-3.93-.7-4.96Z"/>
      <path class="cls-1" d="m169.13,18.46c2.65-3.38,7.2-5.06,13.64-5.06,4.2,0,7.92.83,11.18,2.5s4.89,4.8,4.89,9.42v17.58c0,1.22.02,2.7.07,4.43.07,1.31.27,2.2.6,2.67s.82.86,1.48,1.16v1.48h-10.9c-.3-.77-.52-1.5-.63-2.18s-.21-1.45-.28-2.32c-1.38,1.5-2.98,2.78-4.78,3.83-2.16,1.24-4.59,1.86-7.31,1.86-3.47,0-6.33-.99-8.6-2.97s-3.39-4.79-3.39-8.42c0-4.71,1.82-8.12,5.45-10.23,1.99-1.15,4.92-1.97,8.79-2.46l3.41-.42c1.85-.23,3.18-.53,3.97-.88,1.43-.61,2.14-1.56,2.14-2.85,0-1.57-.54-2.65-1.63-3.25s-2.69-.9-4.8-.9c-2.37,0-4.04.59-5.03,1.76-.7.87-1.17,2.04-1.41,3.52h-9.67c.21-3.35,1.15-6.11,2.81-8.26Zm7.45,26.93c.94.77,2.09,1.16,3.45,1.16,2.16,0,4.14-.63,5.96-1.9s2.76-3.57,2.83-6.93v-3.73c-.63.4-1.27.72-1.92.97s-1.53.47-2.65.69l-2.25.42c-2.11.38-3.62.83-4.54,1.37-1.55.91-2.32,2.33-2.32,4.25,0,1.71.48,2.94,1.44,3.69Z"/>
      <path class="cls-1" d="m218.03.5v9.25h-10.16V.5h10.16Zm0,13.82v38.32h-10.16V14.32h10.16Z"/>
      <path class="cls-1" d="m227.95.82h10.02v51.82h-10.02V.82Z"/>
    </g>
  </g>
</svg>