<?xml version="1.0" encoding="UTF-8"?>
<svg id="_レイヤー_2" data-name="レイヤー 2" xmlns="http://www.w3.org/2000/svg" viewBox="0 0 328.48 67.82">
  <defs>
    <style>
      .cls-1 {
        fill: #c2c2c2;
      }
    </style>
  </defs>
  <g id="_レイヤー_1-2" data-name="レイヤー 1">
    <g>
      <path class="cls-1" d="m22.43,6.08l1.65,5.24-7.49,2.32,4.89,7-4.5,3.2-4.89-6.61-5.03,6.61-4.5-3.2,4.92-7L0,11.32l1.65-5.24,7.35,2.39V0h6.08v8.47l7.35-2.39Z"/>
      <path class="cls-1" d="m41.77,52.14h-10.09V.32h15.75l9.42,40.75L66.2.32h15.57v51.82h-10.09V17.09c0-1.01.01-2.42.04-4.24s.04-3.22.04-4.2l-9.81,43.49h-10.51l-9.74-43.49c0,.98.01,2.38.04,4.2s.04,3.23.04,4.24v35.05Z"/>
      <path class="cls-1" d="m123.82,40.89c-.26,2.27-1.44,4.58-3.55,6.93-3.28,3.73-7.88,5.59-13.78,5.59-4.88,0-9.18-1.57-12.9-4.71s-5.59-8.25-5.59-15.33c0-6.63,1.68-11.72,5.04-15.26s7.73-5.31,13.1-5.31c3.19,0,6.06.6,8.61,1.79s4.66,3.08,6.33,5.66c1.5,2.27,2.47,4.91,2.92,7.91.26,1.76.36,4.29.32,7.59h-26.23c.14,3.84,1.35,6.54,3.62,8.09,1.38.96,3.05,1.44,4.99,1.44,2.06,0,3.74-.59,5.03-1.76.7-.63,1.32-1.51,1.86-2.64h10.23Zm-9.91-11.74c-.16-2.65-.97-4.66-2.41-6.03s-3.23-2.06-5.36-2.06c-2.32,0-4.12.73-5.4,2.18s-2.08,3.42-2.41,5.91h15.57Z"/>
      <path class="cls-1" d="m157.46,15.57c3,1.92,4.72,5.23,5.17,9.91h-10.02c-.14-1.29-.5-2.31-1.09-3.06-1.1-1.36-2.98-2.04-5.62-2.04-2.18,0-3.73.34-4.66,1.02s-1.39,1.48-1.39,2.39c0,1.15.49,1.98,1.48,2.5.98.54,4.46,1.46,10.44,2.78,3.98.94,6.97,2.36,8.96,4.25,1.97,1.92,2.95,4.32,2.95,7.21,0,3.8-1.41,6.9-4.24,9.3s-7.19,3.6-13.1,3.6-10.47-1.27-13.34-3.81-4.31-5.78-4.31-9.72h10.16c.21,1.78.67,3.05,1.37,3.8,1.24,1.34,3.54,2,6.89,2,1.97,0,3.53-.29,4.69-.88s1.74-1.46,1.74-2.64-.47-1.98-1.41-2.57-4.42-1.59-10.44-3.02c-4.34-1.08-7.39-2.43-9.18-4.04-1.78-1.59-2.67-3.89-2.67-6.89,0-3.54,1.39-6.58,4.17-9.12s6.69-3.81,11.72-3.81,8.68.95,11.71,2.85Z"/>
      <path class="cls-1" d="m197.51,15.57c3,1.92,4.72,5.23,5.17,9.91h-10.02c-.14-1.29-.5-2.31-1.09-3.06-1.1-1.36-2.98-2.04-5.62-2.04-2.18,0-3.73.34-4.66,1.02s-1.39,1.48-1.39,2.39c0,1.15.49,1.98,1.48,2.5.98.54,4.46,1.46,10.44,2.78,3.98.94,6.97,2.36,8.96,4.25,1.97,1.92,2.95,4.32,2.95,7.21,0,3.8-1.41,6.9-4.24,9.3s-7.19,3.6-13.1,3.6-10.47-1.27-13.34-3.81-4.31-5.78-4.31-9.72h10.16c.21,1.78.67,3.05,1.37,3.8,1.24,1.34,3.54,2,6.89,2,1.97,0,3.53-.29,4.69-.88s1.74-1.46,1.74-2.64-.47-1.98-1.41-2.57-4.42-1.59-10.44-3.02c-4.34-1.08-7.39-2.43-9.18-4.04-1.78-1.59-2.67-3.89-2.67-6.89,0-3.54,1.39-6.58,4.17-9.12s6.69-3.81,11.72-3.81,8.68.95,11.71,2.85Z"/>
      <path class="cls-1" d="m212.59,17.96c2.65-3.38,7.2-5.06,13.64-5.06,4.2,0,7.92.83,11.18,2.5s4.89,4.8,4.89,9.42v17.58c0,1.22.02,2.7.07,4.43.07,1.31.27,2.2.6,2.67s.82.86,1.48,1.16v1.48h-10.9c-.3-.77-.52-1.5-.63-2.18s-.21-1.45-.28-2.32c-1.38,1.5-2.98,2.78-4.78,3.83-2.16,1.24-4.59,1.86-7.31,1.86-3.47,0-6.33-.99-8.6-2.97s-3.39-4.79-3.39-8.42c0-4.71,1.82-8.12,5.45-10.23,1.99-1.15,4.92-1.97,8.79-2.46l3.41-.42c1.85-.23,3.18-.53,3.97-.88,1.43-.61,2.14-1.56,2.14-2.85,0-1.57-.54-2.65-1.63-3.25s-2.69-.9-4.8-.9c-2.37,0-4.04.59-5.03,1.76-.7.87-1.17,2.04-1.41,3.52h-9.67c.21-3.35,1.15-6.11,2.81-8.26Zm7.45,26.93c.94.77,2.09,1.16,3.45,1.16,2.16,0,4.14-.63,5.96-1.9s2.76-3.57,2.83-6.93v-3.73c-.63.4-1.27.72-1.92.97s-1.53.47-2.65.69l-2.25.42c-2.11.38-3.62.83-4.54,1.37-1.55.91-2.32,2.33-2.32,4.25,0,1.71.48,2.94,1.44,3.69Z"/>
      <path class="cls-1" d="m262.02,58.85c1.08.91,2.89,1.37,5.45,1.37,3.61,0,6.02-1.21,7.24-3.62.8-1.55,1.2-4.15,1.2-7.8v-2.46c-.96,1.64-1.99,2.87-3.09,3.69-1.99,1.52-4.58,2.29-7.77,2.29-4.92,0-8.85-1.73-11.79-5.19s-4.41-8.14-4.41-14.04,1.42-10.48,4.25-14.36,6.86-5.82,12.06-5.82c1.92,0,3.6.29,5.03.88,2.44,1.01,4.41,2.86,5.91,5.55v-5.52h9.74v36.35c0,4.95-.83,8.67-2.5,11.18-2.86,4.31-8.34,6.47-16.45,6.47-4.9,0-8.89-.96-11.99-2.88s-4.8-4.79-5.13-8.61h10.9c.28,1.17.74,2.02,1.37,2.53Zm-1.69-19.79c1.36,3.23,3.8,4.85,7.31,4.85,2.34,0,4.32-.88,5.94-2.65s2.43-4.59,2.43-8.46c0-3.63-.77-6.4-2.3-8.3s-3.59-2.85-6.17-2.85c-3.52,0-5.94,1.65-7.28,4.96-.7,1.76-1.05,3.93-1.05,6.5,0,2.23.38,4.21,1.12,5.94Z"/>
      <path class="cls-1" d="m327.97,40.89c-.26,2.27-1.44,4.58-3.55,6.93-3.28,3.73-7.88,5.59-13.78,5.59-4.88,0-9.18-1.57-12.9-4.71s-5.59-8.25-5.59-15.33c0-6.63,1.68-11.72,5.04-15.26s7.73-5.31,13.1-5.31c3.19,0,6.06.6,8.61,1.79s4.66,3.08,6.33,5.66c1.5,2.27,2.47,4.91,2.92,7.91.26,1.76.36,4.29.32,7.59h-26.23c.14,3.84,1.35,6.54,3.62,8.09,1.38.96,3.05,1.44,4.99,1.44,2.06,0,3.74-.59,5.03-1.76.7-.63,1.32-1.51,1.86-2.64h10.23Zm-9.91-11.74c-.16-2.65-.97-4.66-2.41-6.03s-3.23-2.06-5.36-2.06c-2.32,0-4.12.73-5.4,2.18s-2.08,3.42-2.41,5.91h15.57Z"/>
    </g>
  </g>
</svg>