<?xml version="1.0" encoding="UTF-8"?>
<svg id="_レイヤー_2" data-name="レイヤー 2" xmlns="http://www.w3.org/2000/svg" viewBox="0 0 401.22 54.47">
  <defs>
    <style>
      .cls-1 {
        fill: none;
        stroke: #c2c2c2;
        stroke-miterlimit: 10;
      }
    </style>
  </defs>
  <g id="_レイヤー_1-2" data-name="レイヤー 1">
    <g>
      <path class="cls-1" d="m23.06,6.58l1.65,5.24-7.49,2.32,4.89,7-4.5,3.2-4.89-6.61-5.03,6.61-4.5-3.2,4.92-7L.63,11.82l1.65-5.24,7.35,2.39V.5h6.08v8.47l7.35-2.39Z"/>
      <path class="cls-1" d="m74.32.82l-17.33,32.34v19.48h-10.83v-19.48L28.23.82h12.76l10.76,22.57L62.05.82h12.27Z"/>
      <path class="cls-1" d="m107.33,19.17c3.23,4.05,4.85,8.85,4.85,14.38s-1.62,10.44-4.85,14.43-8.14,5.99-14.73,5.99-11.5-2-14.73-5.99-4.85-8.81-4.85-14.43,1.62-10.32,4.85-14.38,8.14-6.08,14.73-6.08,11.5,2.03,14.73,6.08Zm-14.77,2.39c-2.93,0-5.19,1.04-6.77,3.11s-2.37,5.03-2.37,8.88.79,6.81,2.37,8.89,3.84,3.13,6.77,3.13,5.18-1.04,6.75-3.13,2.36-5.05,2.36-8.89-.79-6.8-2.36-8.88-3.82-3.11-6.75-3.11Z"/>
      <path class="cls-1" d="m143.93,47.22c-.09.12-.33.47-.7,1.05s-.82,1.1-1.34,1.55c-1.57,1.41-3.09,2.37-4.55,2.88s-3.18.77-5.15.77c-5.67,0-9.49-2.04-11.46-6.12-1.1-2.25-1.65-5.57-1.65-9.95V14.32h10.27v23.1c0,2.18.26,3.82.77,4.92.91,1.95,2.71,2.92,5.38,2.92,3.42,0,5.77-1.38,7.03-4.15.66-1.5.98-3.48.98-5.94V14.32h10.16v38.32h-9.74v-5.41Z"/>
      <path class="cls-1" d="m182.6,23.56c-4.03,0-6.74,1.31-8.12,3.94-.77,1.48-1.16,3.75-1.16,6.82v18.32h-10.09V14.32h9.56v6.68c1.55-2.55,2.89-4.3,4.04-5.24,1.88-1.57,4.31-2.36,7.31-2.36.19,0,.35,0,.47.02s.42.03.86.05v10.27c-.63-.07-1.2-.12-1.69-.14s-.89-.04-1.2-.04Z"/>
      <path class="cls-1" d="m254.07,52.64h-10.83l-21.16-36.81v36.81h-10.09V.82h11.36l20.64,36.18V.82h10.09v51.82Z"/>
      <path class="cls-1" d="m264.8,18.46c2.65-3.38,7.2-5.06,13.64-5.06,4.2,0,7.92.83,11.18,2.5s4.89,4.8,4.89,9.42v17.58c0,1.22.02,2.7.07,4.43.07,1.31.27,2.2.6,2.67s.82.86,1.48,1.16v1.48h-10.9c-.3-.77-.52-1.5-.63-2.18s-.21-1.45-.28-2.32c-1.38,1.5-2.98,2.78-4.78,3.83-2.16,1.24-4.59,1.86-7.31,1.86-3.47,0-6.33-.99-8.6-2.97s-3.39-4.79-3.39-8.42c0-4.71,1.82-8.12,5.45-10.23,1.99-1.15,4.92-1.97,8.79-2.46l3.41-.42c1.85-.23,3.18-.53,3.97-.88,1.43-.61,2.14-1.56,2.14-2.85,0-1.57-.54-2.65-1.63-3.25s-2.69-.9-4.8-.9c-2.37,0-4.04.59-5.03,1.76-.7.87-1.17,2.04-1.41,3.52h-9.67c.21-3.35,1.15-6.11,2.81-8.26Zm7.45,26.93c.94.77,2.09,1.16,3.45,1.16,2.16,0,4.14-.63,5.96-1.9s2.76-3.57,2.83-6.93v-3.73c-.63.4-1.27.72-1.92.97s-1.53.47-2.65.69l-2.25.42c-2.11.38-3.62.83-4.54,1.37-1.55.91-2.32,2.33-2.32,4.25,0,1.71.48,2.94,1.44,3.69Z"/>
      <path class="cls-1" d="m324.91,24.86c-.84-1.85-2.5-2.78-4.96-2.78-2.86,0-4.78.93-5.77,2.78-.54,1.05-.81,2.62-.81,4.71v23.06h-10.16V14.39h9.74v5.59c1.24-1.99,2.41-3.41,3.52-4.25,1.95-1.5,4.46-2.25,7.56-2.25,2.93,0,5.3.64,7.1,1.93,1.45,1.2,2.55,2.73,3.3,4.61,1.31-2.25,2.94-3.9,4.89-4.96,2.06-1.05,4.36-1.58,6.89-1.58,1.69,0,3.35.33,4.99.98s3.13,1.8,4.46,3.45c1.08,1.34,1.8,2.98,2.18,4.92.23,1.29.35,3.18.35,5.66l-.07,24.15h-10.27v-24.4c0-1.45-.23-2.65-.7-3.59-.89-1.78-2.53-2.67-4.92-2.67-2.77,0-4.68,1.15-5.73,3.45-.54,1.22-.81,2.68-.81,4.39v22.82h-10.09v-22.82c0-2.27-.23-3.93-.7-4.96Z"/>
      <path class="cls-1" d="m400.22,41.39c-.26,2.27-1.44,4.58-3.55,6.93-3.28,3.73-7.88,5.59-13.78,5.59-4.88,0-9.18-1.57-12.9-4.71s-5.59-8.25-5.59-15.33c0-6.63,1.68-11.72,5.04-15.26s7.73-5.31,13.1-5.31c3.19,0,6.06.6,8.61,1.79s4.66,3.08,6.33,5.66c1.5,2.27,2.47,4.91,2.92,7.91.26,1.76.36,4.29.32,7.59h-26.23c.14,3.84,1.35,6.54,3.62,8.09,1.38.96,3.05,1.44,4.99,1.44,2.06,0,3.74-.59,5.03-1.76.7-.63,1.32-1.51,1.86-2.64h10.23Zm-9.91-11.74c-.16-2.65-.97-4.66-2.41-6.03s-3.23-2.06-5.36-2.06c-2.32,0-4.12.73-5.4,2.18s-2.08,3.42-2.41,5.91h15.57Z"/>
    </g>
  </g>
</svg>