<?xml version="1.0" encoding="UTF-8"?>
<svg id="_レイヤー_2" data-name="レイヤー 2" xmlns="http://www.w3.org/2000/svg" viewBox="0 0 285.79 69.8">
  <defs>
    <style>
      .cls-1 {
        fill: none;
        stroke: #c2c2c2;
        stroke-miterlimit: 10;
      }
    </style>
  </defs>
  <g id="_レイヤー_1-2" data-name="レイヤー 1">
    <g>
      <path class="cls-1" d="m23.06,7.78l1.65,5.24-7.49,2.32,4.89,7-4.5,3.2-4.89-6.61-5.03,6.61-4.5-3.2,4.92-7L.63,13.02l1.65-5.24,7.35,2.39V1.7h6.08v8.47l7.35-2.39Z"/>
      <path class="cls-1" d="m51.29,46.34c2.55,0,4.63-.28,6.22-.84,3.02-1.08,4.54-3.08,4.54-6.01,0-1.71-.75-3.04-2.25-3.97-1.5-.91-3.86-1.72-7.07-2.43l-5.48-1.23c-5.39-1.22-9.12-2.54-11.18-3.97-3.49-2.39-5.24-6.13-5.24-11.21,0-4.64,1.69-8.5,5.06-11.57S44.22.5,50.76.5c5.46,0,10.12,1.45,13.97,4.34s5.88,7.1,6.06,12.6h-10.41c-.19-3.12-1.55-5.33-4.08-6.64-1.69-.87-3.79-1.3-6.29-1.3-2.79,0-5.02.56-6.68,1.69s-2.5,2.7-2.5,4.71c0,1.85.82,3.23,2.46,4.15,1.05.61,3.3,1.32,6.75,2.14l8.93,2.14c3.91.94,6.87,2.19,8.86,3.76,3.09,2.44,4.64,5.96,4.64,10.58s-1.81,8.67-5.43,11.79-8.74,4.69-15.35,4.69-12.06-1.54-15.93-4.62-5.8-7.32-5.8-12.71h10.34c.33,2.37.97,4.14,1.93,5.31,1.76,2.13,4.77,3.2,9.04,3.2Z"/>
      <path class="cls-1" d="m104.27,48.42c-.09.12-.33.47-.7,1.05s-.82,1.1-1.34,1.55c-1.57,1.41-3.09,2.37-4.55,2.88s-3.18.77-5.15.77c-5.67,0-9.49-2.04-11.46-6.12-1.1-2.25-1.65-5.57-1.65-9.95V15.51h10.27v23.1c0,2.18.26,3.82.77,4.92.91,1.95,2.71,2.92,5.38,2.92,3.42,0,5.77-1.38,7.03-4.15.66-1.5.98-3.48.98-5.94V15.51h10.16v38.32h-9.74v-5.41Z"/>
      <path class="cls-1" d="m144.49,54.85c-3.16,0-5.71-.63-7.63-1.9-1.15-.75-2.39-2.06-3.73-3.94v4.82h-9.81V2.08h9.98v18.42c1.27-1.78,2.66-3.14,4.18-4.08,1.8-1.17,4.1-1.76,6.89-1.76,5.04,0,8.98,1.82,11.83,5.45s4.27,8.32,4.27,14.06-1.41,10.89-4.22,14.8-6.74,5.87-11.78,5.87Zm5.48-19.62c0-2.72-.35-4.97-1.05-6.75-1.34-3.38-3.8-5.06-7.38-5.06s-6.13,1.65-7.49,4.96c-.7,1.76-1.05,4.03-1.05,6.82,0,3.28.73,6,2.18,8.16s3.67,3.23,6.64,3.23c2.58,0,4.58-1.04,6.01-3.13s2.14-4.83,2.14-8.23Z"/>
      <path class="cls-1" d="m168.11,15.69h10.02v42.26c0,3.87-.76,6.73-2.29,8.58s-4.51,2.78-8.96,2.78c-.3,0-.76-.01-1.35-.04s-1.34-.05-2.23-.07v-8.02c.56.05.96.08,1.2.09s.45.02.63.02c.98,0,1.73-.24,2.23-.72s.76-1.41.76-2.79V15.69Zm0-13.99h10.02v9.25h-10.02V1.7Z"/>
      <path class="cls-1" d="m220.46,42.58c-.26,2.27-1.44,4.58-3.55,6.93-3.28,3.73-7.88,5.59-13.78,5.59-4.88,0-9.18-1.57-12.9-4.71s-5.59-8.25-5.59-15.33c0-6.63,1.68-11.72,5.04-15.26s7.73-5.31,13.1-5.31c3.19,0,6.06.6,8.61,1.79s4.66,3.08,6.33,5.66c1.5,2.27,2.47,4.91,2.92,7.91.26,1.76.36,4.29.32,7.59h-26.23c.14,3.84,1.35,6.54,3.62,8.09,1.38.96,3.05,1.44,4.99,1.44,2.06,0,3.74-.59,5.03-1.76.7-.63,1.32-1.51,1.86-2.64h10.23Zm-9.91-11.74c-.16-2.65-.97-4.66-2.41-6.03s-3.23-2.06-5.36-2.06c-2.32,0-4.12.73-5.4,2.18s-2.08,3.42-2.41,5.91h15.57Z"/>
      <path class="cls-1" d="m260.85,29.26h-10.27c-.19-1.43-.67-2.72-1.44-3.87-1.12-1.55-2.87-2.32-5.24-2.32-3.38,0-5.68,1.68-6.93,5.03-.66,1.78-.98,4.15-.98,7.1s.33,5.07.98,6.79c1.2,3.19,3.45,4.78,6.75,4.78,2.34,0,4.01-.63,4.99-1.9s1.58-2.91,1.79-4.92h10.23c-.23,3.05-1.34,5.93-3.3,8.65-3.14,4.38-7.79,6.57-13.96,6.57s-10.7-1.83-13.61-5.48-4.36-8.4-4.36-14.24c0-6.59,1.61-11.71,4.82-15.36s7.64-5.48,13.29-5.48c4.8,0,8.74,1.08,11.79,3.23s4.87,5.96,5.43,11.43Z"/>
      <path class="cls-1" d="m285.29,46.7v7.49l-4.75.18c-4.73.16-7.97-.66-9.7-2.46-1.12-1.15-1.69-2.92-1.69-5.31v-23.59h-5.34v-7.14h5.34V5.18h9.91v10.69h6.22v7.14h-6.22v20.25c0,1.57.2,2.55.6,2.94s1.62.58,3.66.58c.3,0,.63,0,.97-.02s.67-.03,1-.05Z"/>
    </g>
  </g>
</svg>