<?xml version="1.0" encoding="UTF-8"?>
<svg id="_レイヤー_2" data-name="レイヤー 2" xmlns="http://www.w3.org/2000/svg" viewBox="0 0 166.78 766.87">
  <defs>
    <style>
      .cls-1 {
        fill: none;
        stroke: #000;
        stroke-miterlimit: 10;
      }
    </style>
  </defs>
  <g id="_レイヤー_1-2" data-name="レイヤー 1">
    <g>
      <path class="cls-1" d="m129.72,663.4v57.7l32.2,10.84v34.22L5.28,710.26v-36.98l156.64-55.47v35.49l-32.2,10.1Zm-26.99,9.14l-61.64,19.55,61.64,20.19v-39.75Z"/>
      <path class="cls-1" d="m161.92,526.42v70.99H5.28v-76.09c.28-19.2,5.84-32.8,16.68-40.81,6.66-4.82,14.63-7.23,23.91-7.23s17.25,2.41,23.06,7.23c3.26,2.69,6.23,6.66,8.93,11.9,2.91-8,7.51-14.04,13.81-18.12,6.31-4.07,13.96-6.11,22.95-6.11s17.61,2.34,24.97,7.01c4.89,2.98,9,6.7,12.33,11.16,3.83,5.03,6.45,10.96,7.86,17.8,1.42,6.84,2.13,14.26,2.13,22.26Zm-98.83-15.52c-2.55-4.25-7.12-6.38-13.71-6.38-7.3,0-12.11,2.83-14.45,8.5-1.63,4.89-2.44,11.12-2.44,18.7v34.43h34.54v-38.47c0-6.87-1.31-12.47-3.93-16.79Zm29.86,16.26v39h41.76v-38.47c0-6.87-.92-12.22-2.76-16.05-3.4-6.94-9.92-10.41-19.55-10.41-8.15,0-13.74,3.37-16.79,10.09-1.7,3.76-2.59,9.03-2.66,15.83Z"/>
      <path class="cls-1" d="m166.28,371.48c0,22.39-6.09,39.5-18.28,51.33-14.95,15.87-36.48,23.8-64.61,23.8s-50.23-7.93-64.61-23.8c-12.18-11.83-18.28-28.94-18.28-51.33s6.09-39.5,18.28-51.33c14.38-15.8,35.92-23.7,64.61-23.7s49.66,7.9,64.61,23.7c12.19,11.83,18.28,28.94,18.28,51.33Zm-42.08-30.92c-9.56-7.58-23.17-11.37-40.81-11.37s-31.15,3.81-40.75,11.42c-9.6,7.62-14.4,17.91-14.4,30.87s4.78,23.31,14.35,31.03c9.56,7.72,23.17,11.58,40.81,11.58s31.24-3.86,40.81-11.58c9.56-7.72,14.35-18.07,14.35-31.03s-4.78-23.27-14.35-30.92Z"/>
      <path class="cls-1" d="m101.56,178.82H5.28v-33.26h96.28c16.65,0,29.61,2.59,38.89,7.76,17,9.64,25.5,28.02,25.5,55.15s-8.5,45.55-25.5,55.26c-9.28,5.17-22.24,7.76-38.89,7.76H5.28v-33.26h96.28c10.77,0,18.63-1.28,23.59-3.83,8.79-3.97,13.18-12.61,13.18-25.93s-4.39-21.85-13.18-25.82c-4.96-2.55-12.82-3.83-23.59-3.83Z"/>
      <path class="cls-1" d="m5.28.5h27.74v46.86h128.9v32.94H33.02v47.08H5.28V.5Z"/>
    </g>
  </g>
</svg>