<?xml version="1.0" encoding="UTF-8"?>
<svg id="_レイヤー_2" data-name="レイヤー 2" xmlns="http://www.w3.org/2000/svg" viewBox="0 0 480.73 96.79">
  <defs>
    <style>
      .cls-1 {
        fill: #fff;
      }
    </style>
  </defs>
  <g id="_レイヤー_1-2" data-name="レイヤー 1">
    <g>
      <path class="cls-1" d="m96.79,2.79h19.42l-25.75,91.46h-18.24l-11.04-53.48-3.23-17.68-3.23,17.68-11.04,53.48h-17.75L0,2.79h20.29l12.1,52.37,2.61,14.58,2.67-14.27L47.96,2.79h20.17l10.86,52.37,2.79,14.58,2.79-14.02L96.79,2.79Z"/>
      <path class="cls-1" d="m168.21,96.79c-13.07,0-23.06-3.56-29.97-10.67-9.27-8.73-13.9-21.3-13.9-37.72s4.63-29.33,13.9-37.72c6.91-7.11,16.9-10.67,29.97-10.67s23.06,3.56,29.97,10.67c9.22,8.4,13.84,20.97,13.84,37.72s-4.61,29-13.84,37.72c-6.91,7.11-16.9,10.67-29.97,10.67Zm18.06-24.57c4.43-5.58,6.64-13.53,6.64-23.83s-2.22-18.19-6.67-23.79c-4.45-5.6-10.45-8.41-18.02-8.41s-13.61,2.79-18.12,8.38c-4.51,5.58-6.76,13.53-6.76,23.83s2.25,18.24,6.76,23.83c4.51,5.58,10.55,8.38,18.12,8.38s13.59-2.79,18.06-8.38Z"/>
      <path class="cls-1" d="m265.43,58.39h-19.73v35.86h-18.68V2.79h44.86c6.41.12,11.34.91,14.8,2.36,3.45,1.45,6.38,3.58,8.78,6.39,1.99,2.32,3.56,4.88,4.72,7.69,1.16,2.81,1.74,6.02,1.74,9.62,0,4.34-1.1,8.61-3.29,12.81-2.19,4.2-5.81,7.17-10.86,8.9,4.22,1.7,7.21,4.11,8.97,7.23,1.76,3.12,2.64,7.89,2.64,14.3v6.14c0,4.18.16,7.01.5,8.5.5,2.36,1.65,4.09,3.47,5.21v2.3h-21.03c-.58-2.03-.99-3.66-1.24-4.9-.5-2.56-.77-5.19-.81-7.88l-.12-8.5c-.08-5.83-1.15-9.72-3.2-11.66-2.05-1.94-5.88-2.92-11.51-2.92Zm11.6-16.63c3.81-1.74,5.71-5.17,5.71-10.3,0-5.54-1.84-9.26-5.52-11.17-2.07-1.08-5.17-1.61-9.31-1.61h-22.21v24.57h21.65c4.3,0,7.53-.5,9.68-1.49Z"/>
      <path class="cls-1" d="m399.39,94.25h-24.57l-28.23-39.96-9.12,9.37v30.59h-18.8V2.79h18.8v37.66L372.77,2.79h24.69l-37.48,37.66,39.4,53.79Z"/>
      <path class="cls-1" d="m443.32,81.03c4.51,0,8.17-.5,10.98-1.49,5.34-1.9,8-5.44,8-10.61,0-3.02-1.32-5.36-3.97-7.01-2.65-1.61-6.81-3.04-12.47-4.28l-9.68-2.17c-9.51-2.15-16.09-4.49-19.73-7.01-6.16-4.22-9.25-10.82-9.25-19.79,0-8.19,2.98-14.99,8.94-20.41S430.85.12,442.39.12c9.64,0,17.86,2.55,24.66,7.66,6.8,5.11,10.37,12.52,10.7,22.24h-18.37c-.33-5.5-2.73-9.41-7.2-11.73-2.98-1.53-6.68-2.3-11.11-2.3-4.92,0-8.85.99-11.79,2.98-2.94,1.99-4.4,4.76-4.4,8.31,0,3.27,1.45,5.71,4.34,7.32,1.86,1.08,5.83,2.34,11.91,3.79l15.76,3.79c6.91,1.65,12.12,3.87,15.64,6.64,5.46,4.3,8.19,10.53,8.19,18.68s-3.2,15.29-9.59,20.82c-6.39,5.52-15.42,8.28-27.08,8.28s-21.28-2.72-28.11-8.16c-6.82-5.44-10.24-12.92-10.24-22.43h18.24c.58,4.18,1.72,7.3,3.41,9.37,3.1,3.76,8.42,5.65,15.95,5.65Z"/>
    </g>
  </g>
</svg>